<svg width="7" height="7" viewBox="0 0 7 7" fill="none" xmlns="http://www.w3.org/2000/svg">
<path d="M3.18463 0.15675C3.26838 -0.05225 3.56463 -0.05225 3.64838 0.15675L4.39263 2.00975C4.41015 2.05337 4.43961 2.09118 4.47764 2.11881C4.51567 2.14645 4.56072 2.16281 4.60763 2.166L6.59963 2.301C6.82463 2.31625 6.91588 2.59775 6.74288 2.74225L5.21088 4.02225C5.17474 4.0524 5.14786 4.09214 5.13331 4.1369C5.11875 4.18166 5.11713 4.22961 5.12863 4.27525L5.61563 6.2115C5.67063 6.43 5.43113 6.604 5.24038 6.48425L3.54938 5.42275C3.50956 5.39777 3.46351 5.38451 3.4165 5.38451C3.3695 5.38451 3.32344 5.39777 3.28363 5.42275L1.59263 6.48425C1.40188 6.60425 1.16238 6.43025 1.21738 6.21175L1.70438 4.27525C1.71582 4.22965 1.71417 4.18175 1.69962 4.13704C1.68508 4.09233 1.65821 4.05263 1.62213 4.0225L0.0901266 2.7425C-0.0828734 2.59775 0.00862662 2.31625 0.233377 2.301L2.22538 2.166C2.27228 2.16281 2.31733 2.14645 2.35536 2.11881C2.39339 2.09118 2.42286 2.05337 2.44038 2.00975L3.18463 0.15675Z" fill="#F59E0B"/>
</svg>
